<?xml version="1.0" encoding="utf-8"?>
<!-- Generator: Adobe Illustrator 21.0.0, SVG Export Plug-In . SVG Version: 6.00 Build 0)  -->
<svg version="1.1" id="圖層_1" xmlns="http://www.w3.org/2000/svg" xmlns:xlink="http://www.w3.org/1999/xlink" x="0px" y="0px"
	 viewBox="0 0 512 512" style="enable-background:new 0 0 512 512;" xml:space="preserve">
<style type="text/css">
	.st0{fill:#BE1A34;}
	.st1{fill:#F5F5F5;}
</style>
<g>
	<g>
		<path class="st0" d="M100,504.5C49,504.5,7.5,463,7.5,412V100C7.5,49,49,7.5,100,7.5h312c51,0,92.5,41.5,92.5,92.5v312
			c0,51-41.5,92.5-92.5,92.5H100z"/>
		<path class="st1" d="M412,15c22.6,0,43.9,8.9,60,25s25,37.4,25,60v312c0,22.6-8.9,43.9-25,60s-37.4,25-60,25H100
			c-22.6,0-43.9-8.9-60-25s-25-37.4-25-60V100c0-22.6,8.9-43.9,25-60s37.4-25,60-25H412 M412,0H100C45,0,0,45,0,100v312
			c0,55,45,100,100,100h312c55,0,100-45,100-100V100C512,45,467,0,412,0L412,0z"/>
	</g>
	<path class="st1" d="M407.7,113.4h-47.3V93.8h47.3V43.5h20.5v50.3h47.3v19.6h-47.3v50.3h-20.5V113.4z"/>
	<g>
		<path class="st1" d="M163.4,425.6h-49.1V247.1c0-8.6,0.1-17.6,0.4-26.9c0.3-9.4,0.7-18.2,1.2-26.5c-2.2,2.7-5,5.8-8.6,9.2
			c-3.6,3.5-7.4,7.1-11.5,10.9L66.1,239l-25.7-30.2l81.6-70.4h41.4V425.6z"/>
		<path class="st1" d="M303.2,134.5c24.1,0,44,5.9,59.5,17.7C378.3,164,386,181,386,203.3c0,16.6-4.4,30.6-13.3,42
			c-8.8,11.4-20.7,21.1-35.4,29.2c16.1,9.1,29.6,19.7,40.6,31.8c11,12.1,16.5,27.1,16.5,45c0,15.8-3.8,29.6-11.3,41.4
			c-7.5,11.8-18,20.9-31.6,27.3c-13.5,6.4-29.4,9.7-47.7,9.7c-29.5,0-52.2-6.8-68.2-20.5c-16-13.7-23.9-32.4-23.9-56.3
			c0-18.2,4.9-33.6,14.7-46c9.8-12.5,22.5-22.9,38-31.2c-13.4-8.8-24.1-19.1-32.2-30.8c-8-11.7-12.1-25.5-12.1-41.6
			c0-14.7,3.6-27.2,10.9-37.4c7.2-10.2,17.2-18,29.8-23.3C273.6,137.2,287.6,134.5,303.2,134.5z M259,351.2
			c0,11.5,3.6,21.1,10.9,28.8s18.2,11.5,33,11.5c14.7,0,25.9-3.7,33.4-11.1c7.5-7.4,11.3-17.2,11.3-29.6c0-10.7-3.9-20.1-11.7-28.1
			c-7.8-8-17.7-15.4-29.8-22.1l-6-3.6c-13.4,7-23.6,14.7-30.6,23.3C262.4,328.9,259,339.2,259,351.2z M303.2,172.7
			c-10.5,0-19,3-25.7,8.8c-6.7,5.9-10.1,14.2-10.1,24.9c0,11,3.4,20,10.3,27.1c6.8,7.1,15.5,13.5,25.9,19.1
			c10.7-5.6,19.4-12,25.9-19.1c6.6-7.1,9.9-16.2,9.9-27.1c0-10.7-3.4-19-10.1-24.9C322.6,175.6,313.9,172.7,303.2,172.7z"/>
	</g>
</g>
</svg>
